<svg width="60" height="60" viewBox="0 0 60 60" fill="none" xmlns="http://www.w3.org/2000/svg">
<path d="M11.9129 18.6952C15.5595 18.6952 18.5498 15.7292 18.5498 12.0583C18.5498 8.38732 15.5838 5.42139 11.9129 5.42139C8.24192 5.42139 5.30029 8.41164 5.30029 12.0583C5.30029 15.7049 8.26623 18.6952 11.9129 18.6952ZM11.9129 7.94973C14.1738 7.94973 16.0457 9.79736 16.0457 12.0826C16.0457 14.3678 14.1981 16.2155 11.9129 16.2155C9.62764 16.2155 7.78001 14.3678 7.78001 12.0826C7.78001 9.79736 9.65195 7.94973 11.9129 7.94973Z" fill="black"/>
<path d="M19.7656 26.3774C19.0849 26.3288 18.4771 26.8636 18.4285 27.5443L17.4074 42.1066C17.4074 42.1552 17.3831 42.1795 17.3831 42.2281L16.4593 56.4014C16.435 56.9362 15.9731 57.3738 15.4382 57.3738H8.38806C7.85322 57.3738 7.39131 56.9606 7.367 56.4014L6.44319 42.2281C6.41888 41.7176 6.05421 41.2557 5.56799 41.1098C5.30057 41.0369 4.52262 40.7938 4.40107 40.6722C4.30382 40.5264 4.2552 39.7484 4.23089 39.3594L3.38001 24.3353V24.3109C4.96022 23.849 6.51612 23.3385 8.09633 22.828C8.80135 23.6545 9.50637 24.4568 10.2357 25.2834L10.9893 26.1343C11.2324 26.4017 11.5728 26.5719 11.9375 26.5719C12.3021 26.5719 12.6425 26.426 12.8856 26.1343L13.7608 25.1375C14.4658 24.3353 15.1222 23.5816 15.7786 22.8037L26.6699 25.2591C26.8401 25.3077 27.0346 25.3077 27.2047 25.2591L37.0264 23.2413C37.7071 23.0954 38.1447 22.439 37.9988 21.7583C37.853 21.0776 37.1966 20.64 36.5158 20.7859L26.9616 22.755L16.2162 20.3239C16.1676 20.2996 16.0946 20.2996 16.046 20.2996C15.73 20.2753 14.6603 20.251 14.0039 21.029C13.3232 21.8312 12.6425 22.6092 11.9375 23.4114C11.2324 22.6092 10.5517 21.8312 9.87103 21.029C9.23895 20.2996 8.43669 20.0565 7.56149 20.3483C5.88403 20.9074 4.20658 21.4422 2.52912 21.9528C1.45944 22.2931 0.875977 23.0954 0.875977 24.1894C0.875977 24.2623 0.875977 24.4568 0.875977 24.4811L1.70255 39.3108L1.72686 39.5539C1.87273 41.7176 2.18877 42.5442 4.01209 43.2492L4.88728 56.5959C5.00884 58.4435 6.56474 59.9022 8.41237 59.9022H15.4626C17.3102 59.9022 18.8661 58.4435 18.9876 56.5959L19.9115 42.5442C19.9115 42.4955 19.9115 42.4712 19.9358 42.4226L20.9568 27.7388C20.9568 27.0338 20.4463 26.426 19.7656 26.3774Z" fill="black"/>
<path d="M58.2741 0H11.9131C11.2324 0 10.6489 0.559152 10.6489 1.26417C10.6489 1.96919 11.2081 2.52834 11.9131 2.52834H57.0099V35.105H23.7525C23.0718 35.105 22.4884 35.6642 22.4884 36.3692C22.4884 37.0499 23.0475 37.6334 23.7525 37.6334H58.2741C58.9548 37.6334 59.5383 37.0742 59.5383 36.3692V1.26417C59.5383 0.583463 58.9791 0 58.2741 0Z" fill="black"/>
</svg>
